# xmcd
#
# Track frame offsets:
#	150
#	29105
#	48751
#	64934
#	88138
#	100475
#	114501
#	128003
#	141687
#	160962
#	175178
#	198686
#	213602
#	233779
#	259132
#	282002
#
# Disc length: 4042 seconds
#
# Revision: 1
# Processed by: cddbd v1.5.2PL0 Copyright (c) Steve Scherf et al.
# Submitted via: audiograbber 1.83.01
#
DISCID=f90fc810
DTITLE=Peter Green Splinter Group - The very best of Peter Green Splinter Group
DTITLE=[CD 1)
DYEAR=2012
DGENRE=Blues
TTITLE0=Look On Yonder Wall
TTITLE1=The Stumble
TTITLE2=Steady Rollin' Man
TTITLE3=It Takes Time
TTITLE4=When You Got a Good Friend
TTITLE5=Walkin' Blues
TTITLE6=Ramblin' On My Mind
TTITLE7=Me and the Devil Blues
TTITLE8=Sweet Home Chicago
TTITLE9=The Supernatural
TTITLE10=Shake Your Hips
TTITLE11=Last Fair Deal Gone Down
TTITLE12=If I Had Possession Over Judgement Day
TTITLE13=The Green Manalishi (With the Two Pronged Crown)
TTITLE14=Big Change Is Gonna Come
TTITLE15=Heart of Stone
EXTD=
EXTT0=
EXTT1=
EXTT2=
EXTT3=
EXTT4=
EXTT5=
EXTT6=
EXTT7=
EXTT8=
EXTT9=
EXTT10=
EXTT11=
EXTT12=
EXTT13=
EXTT14=
EXTT15=
PLAYORDER=
